<svg xmlns="http://www.w3.org/2000/svg" width="16" height="16" viewBox="0 0 16 16">
  <defs>
    <style>
      .cls-1 {
        fill-rule: evenodd;
      }
    </style>
  </defs>
  <g id="mask-icon.svg">
    <path id="_1" data-name="1" class="cls-1" d="M548,928H537a2,2,0,0,1-2-2V915a2,2,0,0,1,2-2h11a2,2,0,0,1,2,2v11A2,2,0,0,1,548,928Zm-2-9.462a1.49,1.49,0,0,0-1.5-1.531H543v5.455a0.5,0.5,0,0,1-.5.51,0.484,0.484,0,0,1-.5-0.51v-5.455h-1v5.455a0.484,0.484,0,0,1-.5.51,0.5,0.5,0,0,1-.5-0.51v-5.455h-1v5.455a1.486,1.486,0,0,0,1.5,1.531,3.088,3.088,0,0,0,1-.345,1.368,1.368,0,0,0,1,.345,1.487,1.487,0,0,0,1.5-1.531v-4.434h0.5a0.5,0.5,0,0,1,.5.511v5.455h1v-5.455Z" transform="translate(-534 -912)"/>
  </g>
</svg>
