<svg xmlns="http://www.w3.org/2000/svg" width="10" height="10" viewBox="0 0 10 10">
  <metadata><?xpacket begin="﻿" id="W5M0MpCehiHzreSzNTczkc9d"?>
<x:xmpmeta xmlns:x="adobe:ns:meta/" x:xmptk="Adobe XMP Core 5.6-c138 79.159824, 2016/09/14-01:09:01        ">
   <rdf:RDF xmlns:rdf="http://www.w3.org/1999/02/22-rdf-syntax-ns#">
      <rdf:Description rdf:about=""/>
   </rdf:RDF>
</x:xmpmeta>
                                                                                                    
                                                                                                    
                                                                                                    
                                                                                                    
                                                                                                    
                                                                                                    
                                                                                                    
                                                                                                    
                                                                                                    
                                                                                                    
                                                                                                    
                                                                                                    
                                                                                                    
                                                                                                    
                                                                                                    
                                                                                                    
                                                                                                    
                                                                                                    
                                                                                                    
                                                                                                    
                           
<?xpacket end="w"?></metadata>
<defs>
    <style>
      .cls-1 {
        fill: #3e6dff;
        fill-rule: evenodd;
      }
    </style>
  </defs>
  <g id="button-link.svg">
    <path class="cls-1" d="M797,912a5,5,0,1,0-5-5A4.995,4.995,0,0,0,797,912Zm-3-6h3v-2l0.223,0.223a0.38,0.38,0,0,1,.649.27,0.374,0.374,0,0,1-.111.268l0.462,0.462a0.381,0.381,0,0,1,.539.538l0.461,0.462a0.381,0.381,0,0,1,.539.538L800,907l-0.235.235a0.377,0.377,0,0,1,.108.258,0.377,0.377,0,0,1-.64.274l-0.468.468a0.372,0.372,0,0,1,.108.258,0.377,0.377,0,0,1-.64.274l-0.468.468a0.371,0.371,0,0,1,.107.258,0.376,0.376,0,0,1-.639.274L797,910v-2h-3v-2Z" transform="translate(-792 -902)"/>
  </g>
</svg>
