<svg xmlns="http://www.w3.org/2000/svg" width="12" height="12" viewBox="0 0 12 12">
  <defs>
    <style>
      .cls-1 {
        fill: #3e6dff;
        fill-rule: evenodd;
      }
    </style>
  </defs>
  <g id="icon-actions-editable_info_field-cancel.svg">
    <path class="cls-1" d="M1740,745h0a1,1,0,0,1-1.71.707l-3.3-3.285-3.28,3.285A1,1,0,0,1,1730,745h0a0.912,0.912,0,0,1,.09-0.4,1.041,1.041,0,0,1,.22-0.354l0.06-.061,3.2-3.182-3.2-3.182-0.06-.061h0a1.041,1.041,0,0,1-.22-0.354h0a0.912,0.912,0,0,1-.09-0.4h0a1,1,0,0,1,1.71-.707l3.28,3.285,3.3-3.285A1,1,0,0,1,1740,737h0a1,1,0,0,1-.29.707h0l-0.05.043v0.007l-0.06.061L1736.41,741l3.19,3.182,0.06,0.061v0l0.05,0.048h0a1,1,0,0,1,.29.707h0Z" transform="translate(-1729 -735)"/>
  </g>
</svg>
