<svg xmlns="http://www.w3.org/2000/svg" width="36" height="32" viewBox="0 0 36 32">
  <metadata><?xpacket begin="﻿" id="W5M0MpCehiHzreSzNTczkc9d"?>
<x:xmpmeta xmlns:x="adobe:ns:meta/" x:xmptk="Adobe XMP Core 5.6-c138 79.159824, 2016/09/14-01:09:01        ">
   <rdf:RDF xmlns:rdf="http://www.w3.org/1999/02/22-rdf-syntax-ns#">
      <rdf:Description rdf:about=""/>
   </rdf:RDF>
</x:xmpmeta>
                                                                                                    
                                                                                                    
                                                                                                    
                                                                                                    
                                                                                                    
                                                                                                    
                                                                                                    
                                                                                                    
                                                                                                    
                                                                                                    
                                                                                                    
                                                                                                    
                                                                                                    
                                                                                                    
                                                                                                    
                                                                                                    
                                                                                                    
                                                                                                    
                                                                                                    
                                                                                                    
                           
<?xpacket end="w"?></metadata>
<defs>
    <style>
      .cls-1 {
        fill-rule: evenodd;
      }
    </style>
  </defs>
  <g id="button-print.svg">
    <path id="Rounded_Rectangle_2" data-name="Rounded Rectangle 2" class="cls-1" d="M1050,926h-4v4a2,2,0,0,1-2,2h-20a2,2,0,0,1-2-2v-4h-4a2,2,0,0,1-2-2V914a4,4,0,0,1,4-4h28a4,4,0,0,1,4,4v10A2,2,0,0,1,1050,926Zm-31-12a1,1,0,1,0,1,1A1,1,0,0,0,1019,914Zm4,0a1,1,0,1,0,1,1A1,1,0,0,0,1023,914Zm21,4h-20v12h20V918Zm-22-12a2,2,0,0,1,2-2h20a2,2,0,0,1,2,2v2h-24v-2Z" transform="translate(-1016 -902)"/>
  </g>
</svg>
