<svg xmlns="http://www.w3.org/2000/svg" width="22" height="22" viewBox="0 0 44 44">
  <defs>
    <style>
      .cls-1 {
        fill-rule: evenodd;
      }
    </style>
  </defs>
  <path class="cls-1" d="M5290,7737.5a1.77,1.77,0,0,1-.19.79l0.08,0.08-10.05,9.54-0.09-.09a1.992,1.992,0,0,1-2.19-.35,1.749,1.749,0,0,1-.37-2.08l-0.09-.09,8.22-7.8-8.22-7.8,0.09-.09a1.749,1.749,0,0,1,.37-2.08,1.992,1.992,0,0,1,2.19-.35l0.09-.09,10.05,9.54-0.08.08A1.77,1.77,0,0,1,5290,7737.5Z" transform="translate(-5261.5 -7715.5)"/>
</svg>
