<svg xmlns="http://www.w3.org/2000/svg" width="22" height="22" viewBox="0 0 44 44">
  <defs>
    <style>
      .cls-1 {
        fill-rule: evenodd;
      }
    </style>
  </defs>
  <path class="cls-1" d="M5277,7737.5a1.77,1.77,0,0,0,.19.79l-0.08.08,10.05,9.54,0.09-.09a1.992,1.992,0,0,0,2.19-.35,1.749,1.749,0,0,0,.37-2.08l0.09-.09-8.22-7.8,8.22-7.8-0.09-.09a1.749,1.749,0,0,0-.37-2.08,1.992,1.992,0,0,0-2.19-.35l-0.09-.09-10.05,9.54,0.08,0.08A1.77,1.77,0,0,0,5277,7737.5Z" transform="translate(-5261.5 -7715.5)"/>
</svg>
