<svg xmlns="http://www.w3.org/2000/svg" width="16.985" height="9.985" viewBox="0 0 33.97 19.97">
  <defs>
    <style>
      .cls-1 {
        fill: #fff;
        fill-rule: evenodd;
      }
    </style>
  </defs>
  <path class="cls-1" d="M4335.83,8275.61l-0.13.13a2.96,2.96,0,0,1-3.95,3.95l-0.13.13-12.64-12.63-12.63,12.63-0.13-.13a2.963,2.963,0,0,1-3.95-3.96l-0.13-.12,15.44-15.44,0.13,0.13a2.947,2.947,0,0,1,1.29-.3,3.031,3.031,0,0,1,1.27.29l0.12-.12,0.63,0.63a1.061,1.061,0,0,1,.15.15Z" transform="translate(-4302 -8260)"/>
</svg>
