<svg xmlns="http://www.w3.org/2000/svg" width="32" height="32" viewBox="0 0 32 32">
  <defs>
    <style>
      .cls-1 {
        fill-rule: evenodd;
      }
    </style>
  </defs>
  <g id="Artboard_1" data-name="Artboard 1">
    <path id="fill" class="cls-1" d="M597.074,306a1,1,0,0,1-.854-1.515l4.6-7.692a1,1,0,0,1,.539-0.434L605.42,295l-4.063-1.359a1,1,0,0,1-.539-0.434l-4.6-7.692a1,1,0,0,1,1.3-1.41l19.928,10a1,1,0,0,1,0,1.79l-19.928,10A1,1,0,0,1,597.074,306Z" transform="translate(-591 -279)"/>
    <path id="stroke" class="cls-1" d="M617.448,295.9l-19.928,10a1,1,0,0,1-1.3-1.41L601.908,295l-5.688-9.485a1,1,0,0,1,1.3-1.41l19.928,10A1,1,0,0,1,617.448,295.9Zm-16.987-7.856,3.357,5.168a1,1,0,0,0,.539.434L608.42,295l-4.063,1.359a1,1,0,0,0-.539.434l-3.357,5.2,14.017-7.009Z" transform="translate(-591 -279)"/>
  </g>
</svg>
