<svg xmlns="http://www.w3.org/2000/svg" width="48" height="32" viewBox="0 0 48 32">
  <defs>
    <style>
      .cls-1 {
        fill-rule: evenodd;
      }
    </style>
  </defs>
  <g id="dribbble-sm.svg">
    <path class="cls-1" d="M1208.02,641.933a30.851,30.851,0,0,0-6.9-.838,24.994,24.994,0,0,0-4.82.463c-0.47-1.162-.94-2.255-1.42-3.292a23.528,23.528,0,0,0,9.29-6.657A15.964,15.964,0,0,1,1208.02,641.933Zm-5.62-12.085a20.612,20.612,0,0,1-8.6,6.19,80.4,80.4,0,0,0-5.32-9.217,9.948,9.948,0,0,1,3.52-.833,15.977,15.977,0,0,1,10.41,3.86h-0.01Zm-17.11-2.374a47.731,47.731,0,0,1,6.17,9.4,44.931,44.931,0,0,1-13.25,1.93c-0.84,0-1.48-.021-1.91-0.042a16.069,16.069,0,0,1,9-11.287h-0.01Zm-9.31,14.519c0-.263.03-0.526,0.04-0.783,0.45,0.025,1.21.055,2.2,0.055a47.733,47.733,0,0,0,14.34-2.137q0.675,1.431,1.32,3.033a23.872,23.872,0,0,0-9.07,5.2,25.227,25.227,0,0,0-4.56,5.47A15.921,15.921,0,0,1,1175.98,641.993Zm6.12,12.557c0.03-.059.07-0.128,0.12-0.214a22.54,22.54,0,0,1,12.55-9.874,76.155,76.155,0,0,1,3.33,12.322A15.928,15.928,0,0,1,1182.1,654.55Zm18.29,1.053a77.837,77.837,0,0,0-3.21-11.706,22.9,22.9,0,0,1,3.94-.336,28.6,28.6,0,0,1,6.7.86,16,16,0,0,1-7.43,11.179v0Z" transform="translate(-1176 -626)"/>
  </g>
</svg>
