<svg xmlns="http://www.w3.org/2000/svg" width="20" height="22" viewBox="0 0 40 44">
  <defs>
    <style>
      .cls-1 {
        fill-rule: evenodd;
      }
    </style>
  </defs>
  <g id="footer_instagram.svg">
    <path class="cls-1" d="M1483.88,656.246a14.873,14.873,0,0,1-.93,4.855,10.251,10.251,0,0,1-5.85,5.849,14.693,14.693,0,0,1-4.85.929c-2.14.1-2.82,0.121-8.25,0.121s-6.11-.023-8.25-0.121a14.693,14.693,0,0,1-4.85-.929,10.251,10.251,0,0,1-5.85-5.849,14.873,14.873,0,0,1-.93-4.855c-0.1-2.133-.12-2.814-0.12-8.246s0.02-6.113.12-8.246a14.873,14.873,0,0,1,.93-4.855,10.251,10.251,0,0,1,5.85-5.849,14.693,14.693,0,0,1,4.85-.929c2.14-.1,2.82-0.121,8.25-0.121s6.11,0.023,8.25.121a14.693,14.693,0,0,1,4.85.929,10.251,10.251,0,0,1,5.85,5.849,14.873,14.873,0,0,1,.93,4.855c0.1,2.133.12,2.814,0.12,8.246S1483.98,654.113,1483.88,656.246Zm-4-16.31a10.43,10.43,0,0,0-.66-3.589,6.245,6.245,0,0,0-3.57-3.569,10.611,10.611,0,0,0-3.59-.662c-2.1-.1-2.73-0.116-8.06-0.116s-5.96.02-8.06,0.116a10.611,10.611,0,0,0-3.59.662,6.241,6.241,0,0,0-3.57,3.571,10.4,10.4,0,0,0-.66,3.587c-0.1,2.1-.12,2.732-0.12,8.064s0.02,5.962.12,8.063a10.412,10.412,0,0,0,.66,3.588,6.256,6.256,0,0,0,3.57,3.571,10.535,10.535,0,0,0,3.59.661c2.01,0.093,2.55.117,8.06,0.117s6.05-.024,8.06-0.117a10.567,10.567,0,0,0,3.59-.66,6.2,6.2,0,0,0,3.57-3.573,10.4,10.4,0,0,0,.66-3.587c0.1-2.013.12-2.554,0.12-8.063S1479.98,641.949,1479.88,639.936Zm-5.38.07a2.51,2.51,0,1,1,2.51-2.51A2.514,2.514,0,0,1,1474.5,640.006ZM1464,657.989a9.989,9.989,0,1,1,9.99-9.989A9.988,9.988,0,0,1,1464,657.989Zm0-16a6.009,6.009,0,1,0,6.01,6.009A6.009,6.009,0,0,0,1464,641.991Z" transform="translate(-1444 -626)"/>
  </g>
</svg>
