<svg xmlns="http://www.w3.org/2000/svg" width="28" height="22" viewBox="0 0 28 22">
  <defs>
    <style>
      .cls-1 {
        fill-rule: evenodd;
      }
    </style>
  </defs>
  <g id="footer_lastfm">
    <path id="_bg" data-name=" bg" class="cls-1" d="M651.616,295.914a5.355,5.355,0,0,1-5.356-3.551l-0.3-.616-2.57-5.453a5.779,5.779,0,0,0-5.352-3.235,5.459,5.459,0,1,0,0,10.891,5.915,5.915,0,0,0,5.185-2.922l1.039,2.23A8.263,8.263,0,0,1,638.039,296a7.515,7.515,0,1,1,0-14.992,7.864,7.864,0,0,1,7.443,4.625c0.1,0.229,1.454,3.17,2.634,5.673,0.729,1.55,1.351,2.58,3.372,2.641,1.98,0.064,3.344-1.059,3.344-2.48,0-1.389-1.041-1.723-2.792-2.265-3.149-.966-4.776-1.937-4.776-4.262,0-2.269,1.656-3.781,4.352-3.781a4.247,4.247,0,0,1,3.9,2.176l-1.725.819a2.668,2.668,0,0,0-2.272-1.179,1.985,1.985,0,0,0-2.165,1.908c0,1.546,1.486,1.779,3.561,2.413,2.8,0.848,4.1,1.815,4.1,4.233C657.01,294.069,654.671,295.918,651.616,295.914Z" transform="translate(-629 -277)"/>
  </g>
</svg>
