<svg xmlns="http://www.w3.org/2000/svg" width="24" height="22" viewBox="0 0 24 22">
  <defs>
    <style>
      .cls-1 {
        fill-rule: evenodd;
      }
    </style>
  </defs>
  <g id="footer_twitter">
    <path id="icon" class="cls-1" d="M512.4,278a5.135,5.135,0,0,1,3.964,1.586,8.058,8.058,0,0,0,2.57-.873l0.624-.344a5.056,5.056,0,0,1-1.628,2.373,2.394,2.394,0,0,1-.55.394v0.012a9.318,9.318,0,0,0,2.838-.775v0.013a8.176,8.176,0,0,1-1.7,1.967l-0.783.627a14.568,14.568,0,0,1-.233,3.246c-1.252,5.674-4.571,9.527-9.824,11.177a14.9,14.9,0,0,1-7.1.3,18.194,18.194,0,0,1-2.948-.971,11.868,11.868,0,0,1-1.42-.738l-0.44-.271a8.1,8.1,0,0,0,1.6.062c0.493-.08.976-0.059,1.431-0.16a10.248,10.248,0,0,0,3.01-1.094,5.6,5.6,0,0,0,1.358-.9,4.231,4.231,0,0,1-1.493-.27,5.061,5.061,0,0,1-3.181-3.234,4.937,4.937,0,0,0,2.239-.1,3.646,3.646,0,0,1-1.639-.663,4.874,4.874,0,0,1-2.362-4.329l0.514,0.246a5.47,5.47,0,0,0,1.052.3,1.488,1.488,0,0,0,.686.062h-0.025c-0.252-.3-0.664-0.494-0.917-0.812a5.193,5.193,0,0,1-1.126-4.586,5.945,5.945,0,0,1,.538-1.316l0.025,0.013a3.116,3.116,0,0,0,.452.528,9.2,9.2,0,0,0,1.493,1.439,14.72,14.72,0,0,0,6.129,2.988,9.489,9.489,0,0,0,2.251.295,4.731,4.731,0,0,1,.025-2.373,4.974,4.974,0,0,1,2.838-3.394,6.068,6.068,0,0,1,1.114-.344Z" transform="translate(-496 -277)"/>
  </g>
</svg>
