<svg xmlns="http://www.w3.org/2000/svg" width="14" height="22" viewBox="0 0 14 22">
  <defs>
    <style>
      .cls-1 {
        fill-rule: evenodd;
      }
    </style>
  </defs>
  <g id="footer_Tumblr">
    <path id="icon" class="cls-1" d="M560.013,297.8a13.587,13.587,0,0,1-2.588.932,11.107,11.107,0,0,1-2.506.268,6.936,6.936,0,0,1-2.4-.379,5.893,5.893,0,0,1-2-1.087,3.957,3.957,0,0,1-1.152-1.5,6.443,6.443,0,0,1-.32-2.306v-7.719H546.01v-3.117a7.922,7.922,0,0,0,2.514-1.207,6.033,6.033,0,0,0,1.5-1.892,8.4,8.4,0,0,0,.781-2.805h3.172v5.093h5.155v3.928h-5.155v5.645a9.484,9.484,0,0,0,.12,2.374,2.039,2.039,0,0,0,.85.951,3.264,3.264,0,0,0,1.692.438,6.151,6.151,0,0,0,3.369-1.087V297.8Z" transform="translate(-546 -277)"/>
  </g>
</svg>
