<svg xmlns="http://www.w3.org/2000/svg" width="16" height="16" viewBox="0 0 32 32">
  <defs>
    <style>
      .cls-1 {
        fill-rule: evenodd;
      }
    </style>
  </defs>
  <path class="cls-1" d="M140,48H116a4,4,0,0,1-4-4V20a4,4,0,0,1,4-4h24a4,4,0,0,1,4,4V44A4,4,0,0,1,140,48ZM124.6,32.561l-3.1,3.112-1.894-1.895a1.982,1.982,0,0,0-3.562,1.191H116V42h0.008a2,2,0,0,0,.578,1.442,1.958,1.958,0,0,0,1.553.558h6.8c0.022,0,.042.007,0.064,0.007a2,2,0,0,0,1.409-3.418l0,0L124.326,38.5l3.09-3.1a2.01,2.01,0,0,0,0-2.832A1.985,1.985,0,0,0,124.6,32.561ZM140,22h-0.009a1.955,1.955,0,0,0-2.136-2h-6.819c-0.022,0-.042-0.006-0.064-0.006a1.993,1.993,0,0,0-1.366,3.448l1.912,2.185-2.961,2.962a2,2,0,1,0,2.824,2.824l2.774-2.774,2.145,2.449A1.995,1.995,0,0,0,139.955,30H140V22Z" transform="translate(-112 -16)"/>
</svg>
