<svg xmlns="http://www.w3.org/2000/svg" width="16" height="16" viewBox="0 0 32 32">
  <defs>
    <style>
      .cls-1 {
        fill-rule: evenodd;
      }
    </style>
  </defs>
  <path class="cls-1" d="M44,48H20a4,4,0,0,1-4-4V20a4,4,0,0,1,4-4H44a4,4,0,0,1,4,4V44A4,4,0,0,1,44,48ZM41.462,32.536a2,2,0,0,0-2.828,0L34,37.172V22a2,2,0,0,0-4,0V37.172l-4.634-4.636a2,2,0,0,0-2.83,2.83l8.05,8.048a2,2,0,0,0,2.178.432,2.027,2.027,0,0,0,.634-0.42,0.018,0.018,0,0,0,.016-0.012l8.048-8.048a2,2,0,0,0,0-2.828Z" transform="translate(-16 -16)"/>
</svg>
