<svg xmlns="http://www.w3.org/2000/svg" width="24" height="16" viewBox="0 0 48 32">
  <defs>
    <style>
      .cls-1 {
        fill-rule: evenodd;
      }
    </style>
  </defs>
  <g id="instagram-sm.svg">
    <path class="cls-1" d="M1127.9,648.6a11.44,11.44,0,0,1-.74,3.883,8.217,8.217,0,0,1-4.68,4.68,11.744,11.744,0,0,1-3.88.743c-1.71.078-2.25,0.1-6.6,0.1s-4.89-.019-6.6-0.1a11.744,11.744,0,0,1-3.88-.743,8.217,8.217,0,0,1-4.68-4.68,11.44,11.44,0,0,1-.74-3.883c-0.08-1.707-.1-2.252-0.1-6.6s0.02-4.89.1-6.6a11.44,11.44,0,0,1,.74-3.883,8.217,8.217,0,0,1,4.68-4.68,11.744,11.744,0,0,1,3.88-.743c1.71-.078,2.25-0.1,6.6-0.1s4.89,0.019,6.6.1a11.744,11.744,0,0,1,3.88.743,8.217,8.217,0,0,1,4.68,4.68,11.44,11.44,0,0,1,.74,3.883c0.08,1.707.1,2.252,0.1,6.6S1127.98,646.89,1127.9,648.6Zm-5.9-14.586a2.008,2.008,0,1,1,2-2.008A2.009,2.009,0,0,1,1122,634.011Zm-10,16.979a8.99,8.99,0,1,1,8.99-8.99A8.987,8.987,0,0,1,1112,650.99Zm0-14.984a5.994,5.994,0,1,0,5.99,5.994A5.991,5.991,0,0,0,1112,636.006Z" transform="translate(-1096 -626)"/>
  </g>
</svg>
