<svg xmlns="http://www.w3.org/2000/svg" width="24" height="24" viewBox="0 0 48 48">
  <g id="Contact_2x_" data-name="Contact (2x)">
    <path class="cls-1" d="M1424,514.609l-22-21.38V493a2,2,0,0,1,2-2h40a2,2,0,0,1,2,2v0.228Zm-0.69,2.108a0.983,0.983,0,0,0,1.38,0l0.01,0,21.3-20.643V521a2,2,0,0,1-.16.774l-9.67-9.273-0.8.771-0.64.619,9.48,9.088c-0.07.007-.14,0.021-0.21,0.021h-40c-0.07,0-.14-0.014-0.21-0.021l9.48-9.089-1.44-1.39-9.67,9.274A2,2,0,0,1,1402,521V496.076l21.31,20.643v0Z" transform="translate(-1400 -483)"/>
  </g>
</svg>
