<svg xmlns="http://www.w3.org/2000/svg" width="24" height="24" viewBox="0 0 48 48">
  <g id="Photography_2x_" data-name="Photography (2x)">
    <path class="cls-1" d="M1244,524h-33a1,1,0,0,1-1-1v-3h0V499h0v-2a1,1,0,0,1,1-1h7c2,0,3-6,5-6h10c2,0,3,6,5,6h9a1,1,0,0,1,1,1v23A4,4,0,0,1,1244,524Zm-16-24a11,11,0,1,0,11,11A11,11,0,0,0,1228,500Zm0,20a9,9,0,1,1,9-9A9,9,0,0,1,1228,520Zm17-26h-6a1,1,0,0,1,0-2h6A1,1,0,0,1,1245,494Zm-28,0h-6a1,1,0,0,1,0-2h6A1,1,0,0,1,1217,494Zm-10,0h-4a1,1,0,0,1,0-2h4A1,1,0,0,1,1207,494Zm1,3v23h0v3a1,1,0,0,1-1,1h-3a4,4,0,0,1-4-4V497a1,1,0,0,1,1-1h6A1,1,0,0,1,1208,497Zm-4,27h0Z" transform="translate(-1200 -483)"/>
  </g>
</svg>
