<svg xmlns="http://www.w3.org/2000/svg" width="24" height="24" viewBox="0 0 48 48">
  <g id="Projects_2x_" data-name="Projects (2x)">
    <path class="cls-1" d="M1044.86,527.837a3.994,3.994,0,0,1-5.65,0c-1-1.008-9.39-9.668-15.58-16.043l5.09-5.245c6.39,6.183,15.13,14.624,16.14,15.637A4,4,0,0,1,1044.86,527.837Zm-23.82-30.429L1021,497.4v0a6.491,6.491,0,1,1-11.03-4.517,23.793,23.793,0,0,1,24.03-8.22v1.451A11.412,11.412,0,0,0,1021.04,497.408Zm-8.46,8.37-4.21,4.206a6.459,6.459,0,0,1-6.35-6.371l4.21-4.213A8.466,8.466,0,0,0,1012.58,505.778Zm9.44-4.318c1.1,1.134,2.66,2.741,4.42,4.551l-3.39,3.495c-1.84-1.78-3.48-3.363-4.62-4.477A8.626,8.626,0,0,0,1022.02,501.46Z" transform="translate(-1000 -483)"/>
  </g>
</svg>
