<svg xmlns="http://www.w3.org/2000/svg" width="7" height="12" viewBox="0 0 14 24">
  <defs>
    <style>
      .cls-1 {
        fill-rule: evenodd;
      }
    </style>
  </defs>
  <g id="next-sub.svg">
    <path class="cls-1" d="M1010,1058a1.955,1.955,0,0,1-.59,1.41h0l-9.895,9.9-0.01-.01a1.966,1.966,0,0,1-1.5.7,2,2,0,0,1-1.3-3.51h-0.01l8.484-8.49-8.484-8.49h0.01A2,2,0,0,1,998,1046a1.966,1.966,0,0,1,1.5.7l0.01-.01,9.895,9.9h0A1.955,1.955,0,0,1,1010,1058Z" transform="translate(-996 -1046)"/>
  </g>
</svg>
