<svg xmlns="http://www.w3.org/2000/svg" width="300" height="300" viewBox="0 0 885.938 885.938">
   <path id="Gradient_Fill_1" data-name="Gradient Fill 1" class="cls-1" d="M512,953.982C267.348,953.982,69.018,755.652,69.018,511S267.348,68.018,512,68.018,954.982,266.348,954.982,511,756.653,953.982,512,953.982ZM712.986,371.489s0-85.5-85.494-85.5c-0.066,0-.121.017-0.186,0.017H598.993v-0.017h-57v370.5s0,28.5-28.5,28.5S485,656.489,485,656.489v-370.5H428v370.5s0,28.5-28.5,28.5S371,656.489,371,656.489v-370.5h-57v370.5s0,85.5,85.489,85.5c26.264,0,44.4-8.1,57.007-19.274,12.6,11.175,30.739,19.274,56.991,19.274,85.5,0,85.5-85.5,85.5-85.5V400h0V343h28.493v0s0-.006.011-0.006c28.5,0,28.5,28.5,28.5,28.5v370.5h57v-370.5Z" transform="translate(-69.031 -68.031)"/>
</svg>
