<svg xmlns="http://www.w3.org/2000/svg" width="48" height="32" viewBox="0 0 48 32">
  <defs>
    <style>
      .cls-1 {
        fill-rule: evenodd;
      }
    </style>
  </defs>
  <g id="twitter-sm.svg">
    <path class="cls-1" d="M1046.12,633.125a8.151,8.151,0,0,1,6.31,2.539,12.756,12.756,0,0,0,4.09-1.4l1-.551a8.053,8.053,0,0,1-2.6,3.8,3.749,3.749,0,0,1-.87.631v0.019a14.868,14.868,0,0,0,4.52-1.24v0.02a13.141,13.141,0,0,1-2.71,3.149l-1.25,1a23.215,23.215,0,0,1-.37,5.2c-1.99,9.083-7.27,15.251-15.63,17.893a23.59,23.59,0,0,1-11.3.48,28.519,28.519,0,0,1-4.69-1.554,18.367,18.367,0,0,1-2.26-1.182l-0.71-.434a12.887,12.887,0,0,0,2.55.1c0.79-.128,1.55-0.1,2.28-0.256a16.275,16.275,0,0,0,4.79-1.752,8.894,8.894,0,0,0,2.16-1.441,6.727,6.727,0,0,1-2.38-.432,8.086,8.086,0,0,1-5.06-5.177,7.846,7.846,0,0,0,3.57-.16,5.754,5.754,0,0,1-2.61-1.062,7.8,7.8,0,0,1-3.76-6.93l0.82,0.394a8.632,8.632,0,0,0,1.67.48,2.338,2.338,0,0,0,1.09.1h-0.04c-0.4-.48-1.05-0.791-1.46-1.3a8.348,8.348,0,0,1-1.79-7.341,9.444,9.444,0,0,1,.86-2.107l0.04,0.021a4.669,4.669,0,0,0,.72.845,14.757,14.757,0,0,0,2.37,2.3,23.416,23.416,0,0,0,9.76,4.783,14.952,14.952,0,0,0,3.58.472,7.633,7.633,0,0,1,.04-3.8,7.956,7.956,0,0,1,4.52-5.434,9.433,9.433,0,0,1,1.77-.55Z" transform="translate(-1020 -633)"/>
  </g>
</svg>
