<svg xmlns="http://www.w3.org/2000/svg" width="22" height="22" viewBox="0 0 44 44">
  <defs>
    <style>
      .cls-1 {
        fill: #bf606e;
        fill-rule: evenodd;
      }
    </style>
  </defs>
  <g id="Artboard_2" data-name="Artboard 2">
    <path class="cls-1" d="M8126.82,2446.1l0.07,0.07-7.35,7.39a0.01,0.01,0,0,0-.01.01l-0.34.34-0.07-.06a1.419,1.419,0,0,1-1.27,0l-0.07.06-0.34-.34-0.01-.01-7.35-7.39,0.07-.07a1.485,1.485,0,0,1,.28-1.69,1.467,1.467,0,0,1,1.68-.28l0.07-.07,4.82,4.84v-10.93h0.1a1.469,1.469,0,0,1,2.77,0H8120v10.9l4.79-4.81,0.07,0.07a1.467,1.467,0,0,1,1.68.28A1.485,1.485,0,0,1,8126.82,2446.1Z" transform="translate(-8096 -2423)"/>
  </g>
</svg>
