<svg xmlns="http://www.w3.org/2000/svg" width="22" height="22" viewBox="0 0 22 22">
  <defs>
    <style>
      .cls-1 {
        fill-rule: evenodd;
      }
    </style>
  </defs>
  <g id="social-instagram">
    <path id="instagram" class="cls-1" d="M478.375,305h-14.75A2.625,2.625,0,0,1,461,302.375v-14.75A2.625,2.625,0,0,1,463.625,285h14.75A2.625,2.625,0,0,1,481,287.625v14.75A2.625,2.625,0,0,1,478.375,305ZM471,293a3,3,0,1,0,3,3A3,3,0,0,0,471,293Zm8-4.846A1.154,1.154,0,0,0,477.846,287h-2.692A1.154,1.154,0,0,0,474,288.154v2.692A1.154,1.154,0,0,0,475.154,292h2.692A1.154,1.154,0,0,0,479,290.846v-2.692ZM479,296h-3a5,5,0,0,1-10,0h-3v5.92a1.1,1.1,0,0,0,1.125,1.08h13.75A1.1,1.1,0,0,0,479,301.92V296Z" transform="translate(-460 -284)"/>
  </g>
</svg>
