<svg xmlns="http://www.w3.org/2000/svg" width="22" height="22" viewBox="0 0 22 22">
  <defs>
    <style>
      .cls-1 {
        fill-rule: evenodd;
      }
    </style>
  </defs>
  <g id="social-twitter">
    <path id="icon" class="cls-1" d="M383.964,286a4.621,4.621,0,0,1,3.568,1.428,7.314,7.314,0,0,0,2.312-.786l0.561-.31a4.546,4.546,0,0,1-1.464,2.136,2.157,2.157,0,0,1-.5.354v0.011a8.392,8.392,0,0,0,2.555-.7v0.011a7.294,7.294,0,0,1-1.531,1.77q-0.351.284-.7,0.565a13.111,13.111,0,0,1-.209,2.921c-1.128,5.107-4.114,8.574-8.842,10.06a13.418,13.418,0,0,1-6.387.265,16.372,16.372,0,0,1-2.653-.874,10.537,10.537,0,0,1-1.278-.664l-0.4-.243a7.33,7.33,0,0,0,1.442.055c0.444-.072.879-0.053,1.289-0.144a9.182,9.182,0,0,0,2.708-.985,5.025,5.025,0,0,0,1.223-.808,3.791,3.791,0,0,1-1.344-.243,4.549,4.549,0,0,1-2.862-2.911,4.446,4.446,0,0,0,2.014-.088,3.281,3.281,0,0,1-1.475-.6,4.386,4.386,0,0,1-2.125-3.895l0.462,0.221a4.862,4.862,0,0,0,.947.266,1.342,1.342,0,0,0,.617.055h-0.022c-0.227-.266-0.6-0.444-0.826-0.73a4.676,4.676,0,0,1-1.013-4.128,5.273,5.273,0,0,1,.485-1.184l0.022,0.011a2.755,2.755,0,0,0,.407.476,8.356,8.356,0,0,0,1.343,1.3,13.257,13.257,0,0,0,5.517,2.689,8.555,8.555,0,0,0,2.026.265,4.252,4.252,0,0,1,.022-2.135,4.479,4.479,0,0,1,2.554-3.055,5.481,5.481,0,0,1,1-.31Z" transform="translate(-369 -284)"/>
  </g>
</svg>
