<svg xmlns="http://www.w3.org/2000/svg" width="22" height="22" viewBox="0 0 22 22">
  <defs>
    <style>
      .cls-1 {
        fill-rule: evenodd;
      }
    </style>
  </defs>
  <g id="social-dribbble">
    <path id="icon" class="cls-1" d="M333,284.005a11,11,0,1,0,11,11A11,11,0,0,0,333,284.005Zm9.128,10.961a17.556,17.556,0,0,0-3.928-.478,14.291,14.291,0,0,0-2.75.264c-0.266-.662-0.536-1.285-0.809-1.876a13.44,13.44,0,0,0,5.294-3.794A9.071,9.071,0,0,1,342.128,294.966Zm-3.2-6.888a11.744,11.744,0,0,1-4.9,3.528,30.045,30.045,0,0,0-3.439-5.395A9.044,9.044,0,0,1,338.931,288.078Zm-9.75-1.353a27.09,27.09,0,0,1,3.511,5.357,25.587,25.587,0,0,1-7.549,1.1c-0.477,0-.844-0.012-1.086-0.024A9.152,9.152,0,0,1,329.181,286.725ZM323.87,295c0-.15.015-0.3,0.022-0.446,0.259,0.014.688,0.031,1.251,0.031a27.24,27.24,0,0,0,8.177-1.218q0.379,0.816.752,1.729a13.619,13.619,0,0,0-5.171,2.965,14.494,14.494,0,0,0-2.6,3.118A9.073,9.073,0,0,1,323.87,295Zm3.487,7.157c0.019-.034.041-0.073,0.07-0.122a12.842,12.842,0,0,1,7.151-5.628,43.839,43.839,0,0,1,1.9,7.023A9.082,9.082,0,0,1,327.357,302.157Zm10.426,0.6a44.928,44.928,0,0,0-1.829-6.672,12.982,12.982,0,0,1,2.246-.191,16.249,16.249,0,0,1,3.814.49A9.121,9.121,0,0,1,337.783,302.755Z" transform="translate(-322 -284)"/>
  </g>
</svg>
